# xmcd
#
# Track frame offsets: 
#        150
#        18450
#        28585
#        49140
#        54792
#        65377
#        83012
#        120692
#        145797
#        153330
#        156405
#        159017
#        161852
#        163845
#        166950
#        168135
#        174215
#        175990
#        180334
#        184560
#        185847
#        192717
#        198600
#        201655
#        203327
#        209432
#        215430
#        220387
#        228527
#        234180
#        238475
#        243245
#        243910
#        247215
#        252137
#
# Disc length: 3399 seconds
#
# Revision: 0
# Processed by: cddbd v1.5.2PL0 Copyright (c) Steve Scherf et al.
# Submitted via: ExactAudioCopy v0.99pb5
#
DISCID=ef0d4523
DTITLE=Sherwin Linton - Hello, I'm Not Johnny Cash
DYEAR=1971
DGENRE=Country
TTITLE0=Doin' My Time
TTITLE1=Cotton King
TTITLE2=You Gave Me A Mountain
TTITLE3=The Smell
TTITLE4=A Little Piece Of Mind
TTITLE5=Livin' My Life With A Cheater
TTITLE6=If You Had Taken Jesus
TTITLE7=Don't It Make You Wanna Go Home
TTITLE8=Hey Porter
TTITLE9=Folsum Prison Blues
TTITLE10=I Walk The Line
TTITLE11=Ballad Of A Teenage Queen
TTITLE12=Don't Take Your Guns To Town
TTITLE13=I've Got Stripes
TTITLE14=The Rebel
TTITLE15=I Still Miss Someone
TTITLE16=Five Feet High And Rising
TTITLE17=Tennessee Flat Top Box
TTITLE18=Ring Of Fire
TTITLE19=Ballad Of Ira Hayes
TTITLE20=Custer
TTITLE21=It Ain't Me Babe
TTITLE22=Orange Blossom Special
TTITLE23=Everybody Loves A Nut
TTITLE24=The One On The Right Is On The Left
TTITLE25=Jackson
TTITLE26=Cocaine Blues
TTITLE27=Greystone Chapel
TTITLE28=Daddy Sang Bass
TTITLE29=Boy Named Sue
TTITLE30=Sunday Morning Comin' Down
TTITLE31=Flesh and Blood
TTITLE32=Man In Black
TTITLE33=Hello, I'm Not Johnny Cash
TTITLE34=Folsum Prison Blues No. 2
EXTD=
EXTT0=
EXTT1=
EXTT2=
EXTT3=
EXTT4=
EXTT5=
EXTT6=
EXTT7=
EXTT8=
EXTT9=
EXTT10=
EXTT11=
EXTT12=
EXTT13=
EXTT14=
EXTT15=
EXTT16=
EXTT17=
EXTT18=
EXTT19=
EXTT20=
EXTT21=
EXTT22=
EXTT23=
EXTT24=
EXTT25=
EXTT26=
EXTT27=
EXTT28=
EXTT29=
EXTT30=
EXTT31=
EXTT32=
EXTT33=
EXTT34=
PLAYORDER=
